<svg width="200" height="29" viewBox="0 0 200 29" fill="none" xmlns="http://www.w3.org/2000/svg">
<rect x="0.499969" y="0.231445" width="28.4868" height="28.4868" rx="7.59649" fill="url(#paint0_linear_2_3709)"/>
<path d="M21.4969 6.87854H7.992C7.52524 6.87854 7.14795 7.25583 7.14795 7.72259V21.2275C7.14795 21.6942 7.52524 22.0715 7.992 22.0715H21.4969C21.9636 22.0715 22.3409 21.6942 22.3409 21.2275V7.72259C22.3409 7.25583 21.9636 6.87854 21.4969 6.87854ZM11.9987 16.7928C10.7183 16.7928 9.6818 15.7555 9.6818 14.475C9.6818 13.1946 10.7191 12.1573 11.9987 12.1573C13.2808 12.1573 14.3173 13.1946 14.3173 14.475C14.3173 15.7563 13.2808 16.7928 11.9987 16.7928ZM17.4902 16.7928C16.2097 16.7928 15.1715 15.7555 15.1715 14.475C15.1715 13.1946 16.2097 12.1573 17.4902 12.1573C18.7706 12.1573 19.8071 13.1946 19.8071 14.475C19.8071 15.7563 18.7706 16.7928 17.4902 16.7928Z" fill="white" fill-opacity="0.45"/>
<rect x="34.5468" y="0.231567" width="28.4868" height="28.4868" rx="7.59649" fill="url(#paint1_linear_2_3709)"/>
<g clip-path="url(#clip0_2_3709)">
<path d="M46.6291 20.6465C52.0027 20.6465 54.9426 15.8966 54.9426 11.7788C54.9426 11.6453 54.9398 11.5088 54.9343 11.3752C55.5062 10.9341 55.9997 10.3876 56.3917 9.76157C55.8591 10.0143 55.2936 10.1794 54.7145 10.2512C55.3242 9.86134 55.7807 9.24892 55.9995 8.52744C55.4259 8.89004 54.7986 9.14582 54.1445 9.28382C53.7038 8.78432 53.1211 8.45359 52.4864 8.34277C51.8518 8.23194 51.2007 8.3472 50.6336 8.67071C50.0666 8.99423 49.6153 9.50798 49.3494 10.1325C49.0836 10.7571 49.018 11.4577 49.1629 12.126C48.0014 12.0638 46.8652 11.742 45.8278 11.1814C44.7905 10.6207 43.8751 9.83382 43.1412 8.87165C42.7681 9.5577 42.654 10.3695 42.8219 11.1421C42.9898 11.9147 43.4273 12.5901 44.0453 13.031C43.5813 13.0153 43.1275 12.8821 42.7214 12.6423V12.6809C42.7209 13.4008 42.9543 14.0987 43.3817 14.6559C43.8091 15.2131 44.4043 15.5952 45.066 15.7373C44.6362 15.8627 44.1851 15.881 43.7476 15.7907C43.9343 16.4099 44.2976 16.9514 44.7867 17.3397C45.2759 17.7281 45.8665 17.9438 46.4761 17.9569C45.4411 18.8241 44.1626 19.2944 42.8465 19.2922C42.6131 19.2918 42.38 19.2766 42.1483 19.2465C43.4853 20.1615 45.0406 20.6474 46.6291 20.6465Z" fill="white" fill-opacity="0.45"/>
</g>
<rect x="68.602" y="0.231567" width="28.4868" height="28.4868" rx="7.59649" fill="url(#paint2_linear_2_3709)"/>
<g clip-path="url(#clip1_2_3709)">
<path d="M90.4434 14.4748C90.4434 10.2794 87.0423 6.8783 82.8469 6.8783C78.6515 6.8783 75.2504 10.2794 75.2504 14.4748C75.2504 18.2664 78.0283 21.4091 81.66 21.979V16.6706H79.7312V14.4748H81.66V12.8012C81.66 10.8973 82.7941 9.84568 84.5293 9.84568C85.3601 9.84568 86.2297 9.99404 86.2297 9.99404V11.8635H85.2719C84.3282 11.8635 84.0339 12.4491 84.0339 13.0504V14.4748H86.1407L85.8039 16.6706H84.0339V21.979C87.6655 21.4091 90.4434 18.2664 90.4434 14.4748Z" fill="white" fill-opacity="0.45"/>
</g>
<rect x="102.657" y="0.231567" width="28.4868" height="28.4868" rx="7.59649" fill="url(#paint3_radial_2_3709)"/>
<g clip-path="url(#clip2_2_3709)">
<path d="M116.895 8.24626C118.924 8.24626 119.165 8.25516 119.963 8.29077C120.705 8.32341 121.106 8.44804 121.373 8.5519C121.726 8.6884 121.981 8.85457 122.245 9.11867C122.512 9.38573 122.675 9.63796 122.812 9.99108C122.916 10.2581 123.04 10.6617 123.073 11.4006C123.108 12.2018 123.117 12.4421 123.117 14.4689C123.117 16.4985 123.108 16.7389 123.073 17.5371C123.04 18.279 122.916 18.6796 122.812 18.9466C122.675 19.2997 122.509 19.5549 122.245 19.819C121.978 20.0861 121.726 20.2493 121.373 20.3858C121.106 20.4897 120.702 20.6143 119.963 20.6469C119.162 20.6825 118.922 20.6914 116.895 20.6914C114.865 20.6914 114.625 20.6825 113.827 20.6469C113.085 20.6143 112.684 20.4897 112.417 20.3858C112.064 20.2493 111.809 20.0831 111.545 19.819C111.278 19.552 111.114 19.2997 110.978 18.9466C110.874 18.6796 110.749 18.276 110.717 17.5371C110.681 16.7359 110.672 16.4956 110.672 14.4689C110.672 12.4392 110.681 12.1988 110.717 11.4006C110.749 10.6587 110.874 10.2581 110.978 9.99108C111.114 9.63796 111.281 9.38276 111.545 9.11867C111.812 8.8516 112.064 8.6884 112.417 8.5519C112.684 8.44804 113.088 8.32341 113.827 8.29077C114.625 8.25516 114.865 8.24626 116.895 8.24626ZM116.895 6.8783C114.832 6.8783 114.574 6.8872 113.764 6.92281C112.957 6.95842 112.402 7.08898 111.921 7.27592C111.42 7.47177 110.996 7.72993 110.574 8.15427C110.15 8.57564 109.892 8.99997 109.696 9.49849C109.509 9.98218 109.378 10.5341 109.343 11.3412C109.307 12.1543 109.298 12.4125 109.298 14.4748C109.298 16.5371 109.307 16.7953 109.343 17.6054C109.378 18.4125 109.509 18.9674 109.696 19.4481C109.892 19.9496 110.15 20.3739 110.574 20.7953C110.996 21.2167 111.42 21.4778 111.919 21.6707C112.402 21.8576 112.954 21.9882 113.761 22.0238C114.571 22.0594 114.83 22.0683 116.892 22.0683C118.954 22.0683 119.212 22.0594 120.022 22.0238C120.83 21.9882 121.384 21.8576 121.865 21.6707C122.364 21.4778 122.788 21.2167 123.209 20.7953C123.631 20.3739 123.892 19.9496 124.085 19.4511C124.272 18.9674 124.402 18.4155 124.438 17.6083C124.473 16.7982 124.482 16.5401 124.482 14.4778C124.482 12.4154 124.473 12.1573 124.438 11.3472C124.402 10.54 124.272 9.98514 124.085 9.50443C123.898 8.99997 123.64 8.57564 123.215 8.15427C122.794 7.7329 122.37 7.47177 121.871 7.27889C121.387 7.09195 120.835 6.96138 120.028 6.92577C119.215 6.8872 118.957 6.8783 116.895 6.8783Z" fill="white" fill-opacity="0.45"/>
<path d="M116.898 10.5728C114.744 10.5728 112.996 12.3205 112.996 14.4749C112.996 16.6292 114.744 18.377 116.898 18.377C119.053 18.377 120.8 16.6292 120.8 14.4749C120.8 12.3205 119.053 10.5728 116.898 10.5728ZM116.898 17.006C115.501 17.006 114.367 15.8725 114.367 14.4749C114.367 13.0772 115.501 11.9437 116.898 11.9437C118.296 11.9437 119.43 13.0772 119.43 14.4749C119.43 15.8725 118.296 17.006 116.898 17.006Z" fill="white" fill-opacity="0.45"/>
<path d="M121.861 10.4173C121.861 10.9218 121.452 11.3283 120.95 11.3283C120.446 11.3283 120.039 10.9188 120.039 10.4173C120.039 9.91288 120.449 9.50635 120.95 9.50635C121.452 9.50635 121.861 9.91585 121.861 10.4173Z" fill="white" fill-opacity="0.45"/>
</g>
<rect x="136.704" y="0.231567" width="28.4868" height="28.4868" rx="7.59649" fill="url(#paint4_linear_2_3709)"/>
<g clip-path="url(#clip3_2_3709)">
<path d="M157.414 6.87842H144.468C143.847 6.87842 143.346 7.36804 143.346 7.97338V20.9735C143.346 21.5788 143.847 22.0714 144.468 22.0714H157.414C158.034 22.0714 158.539 21.5788 158.539 20.9764V7.97338C158.539 7.36804 158.034 6.87842 157.414 6.87842ZM147.853 19.8251H145.598V12.5728H147.853V19.8251ZM146.726 11.5847C146.002 11.5847 145.417 11.0001 145.417 10.279C145.417 9.55796 146.002 8.97339 146.726 8.97339C147.447 8.97339 148.031 9.55796 148.031 10.279C148.031 10.9971 147.447 11.5847 146.726 11.5847ZM156.293 19.8251H154.04V16.2998C154.04 15.4601 154.026 14.377 152.868 14.377C151.696 14.377 151.518 15.2939 151.518 16.2405V19.8251H149.269V12.5728H151.429V13.5639H151.459C151.758 12.9942 152.494 12.3918 153.589 12.3918C155.871 12.3918 156.293 13.8933 156.293 15.8458V19.8251Z" fill="white" fill-opacity="0.45"/>
</g>
<rect x="170.751" y="0.231567" width="28.4868" height="28.4868" rx="7.59649" fill="url(#paint5_linear_2_3709)"/>
<g clip-path="url(#clip4_2_3709)">
<path d="M192.442 11.4363C192.442 11.4363 192.293 10.3888 191.836 9.92884C191.258 9.32349 190.611 9.32053 190.314 9.28492C188.189 9.13062 185 9.13062 185 9.13062H184.994C184.994 9.13062 181.804 9.13062 179.679 9.28492C179.382 9.32053 178.735 9.32349 178.157 9.92884C177.7 10.3888 177.554 11.4363 177.554 11.4363C177.554 11.4363 177.4 12.6677 177.4 13.8962V15.0476C177.4 16.2761 177.551 17.5075 177.551 17.5075C177.551 17.5075 177.7 18.555 178.154 19.015C178.732 19.6203 179.492 19.5995 179.83 19.6648C181.047 19.7805 184.997 19.8161 184.997 19.8161C184.997 19.8161 188.189 19.8102 190.314 19.6589C190.611 19.6233 191.258 19.6203 191.836 19.015C192.293 18.555 192.442 17.5075 192.442 17.5075C192.442 17.5075 192.593 16.279 192.593 15.0476V13.8962C192.593 12.6677 192.442 11.4363 192.442 11.4363ZM183.427 16.4452V12.1751L187.531 14.3176L183.427 16.4452Z" fill="white" fill-opacity="0.45"/>
</g>
<defs>
<linearGradient id="paint0_linear_2_3709" x1="4.29822" y1="-19.7501" x2="14.7434" y2="28.7183" gradientUnits="userSpaceOnUse">
<stop stop-color="#FF2C91"/>
<stop offset="1" stop-color="#921654"/>
</linearGradient>
<linearGradient id="paint1_linear_2_3709" x1="38.345" y1="-19.75" x2="48.7902" y2="28.7184" gradientUnits="userSpaceOnUse">
<stop stop-color="#00C2FF"/>
<stop offset="1" stop-color="#18718F"/>
</linearGradient>
<linearGradient id="paint2_linear_2_3709" x1="72.4002" y1="-19.75" x2="82.8454" y2="28.7184" gradientUnits="userSpaceOnUse">
<stop stop-color="#2C67FF"/>
<stop offset="1" stop-color="#1D42A5"/>
</linearGradient>
<radialGradient id="paint3_radial_2_3709" cx="0" cy="0" r="1" gradientUnits="userSpaceOnUse" gradientTransform="translate(110.993 30.9325) scale(37.7539 37.7754)">
<stop offset="0.0969388" stop-color="#FFD879"/>
<stop offset="0.1539" stop-color="#FCCB76"/>
<stop offset="0.2583" stop-color="#F5AA6C"/>
<stop offset="0.3976" stop-color="#E9755E"/>
<stop offset="0.449" stop-color="#E45F58"/>
<stop offset="0.6786" stop-color="#D22A9C"/>
<stop offset="1" stop-color="#6968DF"/>
</radialGradient>
<linearGradient id="paint4_linear_2_3709" x1="140.502" y1="-19.75" x2="150.947" y2="28.7184" gradientUnits="userSpaceOnUse">
<stop stop-color="#0094FF"/>
<stop offset="1" stop-color="#135C92"/>
</linearGradient>
<linearGradient id="paint5_linear_2_3709" x1="174.549" y1="-19.75" x2="184.994" y2="28.7184" gradientUnits="userSpaceOnUse">
<stop stop-color="#FF2C2C"/>
<stop offset="1" stop-color="#B12728"/>
</linearGradient>
<clipPath id="clip0_2_3709">
<rect width="14.2434" height="15.193" fill="white" transform="translate(42.1444 6.87866)"/>
</clipPath>
<clipPath id="clip1_2_3709">
<rect width="15.193" height="15.193" fill="white" transform="translate(75.2504 6.87866)"/>
</clipPath>
<clipPath id="clip2_2_3709">
<rect width="15.193" height="15.193" fill="white" transform="translate(109.306 6.87866)"/>
</clipPath>
<clipPath id="clip3_2_3709">
<rect width="15.193" height="15.193" fill="white" transform="translate(143.353 6.87866)"/>
</clipPath>
<clipPath id="clip4_2_3709">
<rect width="15.193" height="15.193" fill="white" transform="translate(177.4 6.87866)"/>
</clipPath>
</defs>
</svg>
